<?xml version="1.0" encoding="UTF-8"?><svg id="b" xmlns="http://www.w3.org/2000/svg" width="232.18" height="232.18" viewBox="0 0 232.18 232.18"><g id="c"><path d="m232.18,232.18H0V0h232.18v232.18Zm-222.18-10h212.18V10H10v212.18Z" fill="#47e0fc" stroke-width="0"/><path d="m116.09,116.09c0-11.69,9.47-21.16,21.16-21.16s21.16,9.47,21.16,21.16-9.47,21.16-21.16,21.16h0c-11.69,0-21.16-9.47-21.16-21.16Z" fill="#47e0fc" stroke-width="0"/><path d="m73.77,158.4c0-11.69,9.47-21.16,21.16-21.16h21.16v21.16c0,11.69-9.47,21.16-21.16,21.16s-21.16-9.47-21.16-21.16Z" fill="#47e0fc" stroke-width="0"/><path d="m116.09,52.61v42.32h21.16c11.69,0,21.16-9.47,21.16-21.16s-9.47-21.16-21.16-21.16h-21.16Z" fill="#47e0fc" stroke-width="0"/><path d="m73.77,73.77c0,11.69,9.47,21.16,21.16,21.16h21.16v-42.32h-21.16c-11.69,0-21.16,9.47-21.16,21.16h0Z" fill="#47e0fc" stroke-width="0"/><path d="m73.77,116.09c0,11.69,9.47,21.16,21.16,21.16h21.16v-42.32h-21.16c-11.69,0-21.16,9.47-21.16,21.16h0Z" fill="#47e0fc" stroke-width="0"/></g></svg>