<?xml version="1.0" encoding="UTF-8"?><svg id="b" xmlns="http://www.w3.org/2000/svg" width="232.18" height="232.18" viewBox="0 0 232.18 232.18"><g id="c"><path d="m33.09,93.86h19.99v.66c1.42-.62,2.86-1.11,4.33-1.48,1.47-.37,2.99-.55,4.56-.55,3.36,0,6.49.63,9.38,1.9,2.89,1.27,5.4,2.99,7.52,5.18s3.78,4.73,4.98,7.65c1.19,2.92,1.79,6.02,1.79,9.29s-.58,6.41-1.75,9.33c-1.17,2.92-2.79,5.46-4.89,7.63-2.09,2.17-4.59,3.88-7.5,5.13-2.9,1.25-6.08,1.88-9.53,1.88-1.95,0-3.76-.18-5.44-.55-1.68-.37-3.3-.89-4.87-1.57v10.04h8.76v12.12h-29.9v-12.12h7.52v-42.42h-4.95v-12.12Zm27.91,10.84c-1.86,0-3.6.49-5.22,1.46-1.62.97-2.99,2.34-4.11,4.11v12.92c.94,1.5,2.23,2.73,3.85,3.67,1.62.94,3.45,1.42,5.48,1.42,1.5,0,2.93-.29,4.29-.86,1.36-.57,2.54-1.39,3.54-2.43,1-1.05,1.8-2.28,2.39-3.72.59-1.43.88-2.99.88-4.67,0-1.86-.29-3.52-.86-5-.57-1.47-1.36-2.72-2.37-3.74-1-1.02-2.18-1.8-3.54-2.34-1.36-.55-2.8-.82-4.33-.82Z" fill="#47e0fc" stroke-width="0"/><path d="m120.31,93.86h21.67v33.7h5.53v12.12h-19.42v-3.89c-1.56,1.42-3.39,2.51-5.48,3.27-2.09.77-4.51,1.15-7.25,1.15-2.54,0-4.92-.4-7.17-1.19-2.24-.8-4.2-2-5.86-3.6-1.67-1.61-2.98-3.62-3.94-6.04-.96-2.42-1.44-5.26-1.44-8.54v-14.86h-5.97v-12.12h20.26v26.98c0,3.07.78,5.36,2.34,6.88,1.56,1.52,3.6,2.28,6.1,2.28,1.77,0,3.38-.54,4.82-1.64,1.44-1.09,2.49-2.57,3.14-4.42v-17.96h-7.34v-12.12Z" fill="#47e0fc" stroke-width="0"/><path d="m188.25,137.3c-1.65.94-3.3,1.62-4.95,2.04-1.65.41-3.33.62-5.04.62-3.54,0-6.8-.6-9.77-1.81-2.98-1.21-5.55-2.88-7.72-5.02-2.17-2.14-3.86-4.67-5.06-7.59-1.21-2.92-1.81-6.09-1.81-9.51,0-3.21.58-6.24,1.75-9.09,1.16-2.85,2.79-5.34,4.89-7.47,2.09-2.14,4.6-3.83,7.52-5.06,2.92-1.24,6.09-1.87,9.51-1.9,2.09.03,4.02.25,5.77.66,1.75.41,3.4.97,4.93,1.68v-.97h13.4v43.92c0,3.86-.66,7.2-1.99,10.02-1.33,2.82-3.1,5.15-5.33,6.99-2.23,1.84-4.81,3.21-7.76,4.11-2.95.9-6.04,1.35-9.29,1.35-4.01,0-7.72-.55-11.12-1.64-3.41-1.09-6.44-2.57-9.09-4.42l5.53-9.82c2.03,1.3,4.25,2.32,6.63,3.07,2.39.75,5.04,1.13,7.96,1.13,1.59,0,3.06-.18,4.4-.53,1.34-.35,2.51-.95,3.49-1.79.99-.84,1.76-1.97,2.32-3.38.56-1.42.84-3.2.84-5.35v-.22Zm-9.55-9.6c2.06,0,3.93-.52,5.59-1.57,1.67-1.05,2.99-2.43,3.96-4.14l.09-11.15c-1-1.86-2.37-3.33-4.11-4.42-1.74-1.09-3.63-1.65-5.66-1.68-1.44.03-2.86.32-4.25.86-1.39.55-2.59,1.32-3.6,2.32-1.02,1-1.82,2.19-2.41,3.56s-.88,2.9-.88,4.58c0,1.77.29,3.38.88,4.82.59,1.45,1.39,2.67,2.39,3.67,1,1,2.19,1.78,3.56,2.32,1.37.55,2.85.82,4.45.82Z" fill="#47e0fc" stroke-width="0"/><path d="m232.18,232.18H0V0h232.18v232.18Zm-222.18-10h212.18V10H10v212.18Z" fill="#47e0fc" stroke-width="0"/></g></svg>