<?xml version="1.0" encoding="UTF-8"?><svg id="b" xmlns="http://www.w3.org/2000/svg" width="232.18" height="232.18" viewBox="0 0 232.18 232.18"><g id="c"><path d="m232.18,232.18H0V0h232.18v232.18Zm-222.18-10h212.18V10H10v212.18Z" fill="#47e0fc" stroke-width="0"/><path d="m154.25,178.58c4.48,7.31,10.3,12.68,20.6,12.68,8.65,0,14.18-4.32,14.18-10.3,0-7.16-5.68-9.69-15.2-13.86l-5.22-2.24c-15.07-6.42-25.07-14.46-25.07-31.46,0-15.66,11.93-27.58,30.58-27.58,13.27,0,22.82,4.62,29.69,16.72l-16.26,10.44c-3.58-6.42-7.44-8.95-13.44-8.95s-9.99,3.88-9.99,8.95c0,6.26,3.88,8.8,12.84,12.68l5.22,2.24c17.74,7.61,27.75,15.36,27.75,32.8,0,18.8-14.77,29.09-34.6,29.09s-31.92-9.24-38.05-21.35l16.97-9.86Zm-73.75,1.81c3.28,5.82,6.26,10.74,13.44,10.74s11.19-2.68,11.19-13.12v-70.99h20.88v71.27c0,21.62-12.67,31.46-31.18,31.46-16.72,0-26.4-8.65-31.32-19.07l16.99-10.29Z" fill="#47e0fc" stroke-width="0"/></g></svg>