<?xml version="1.0" encoding="UTF-8"?><svg id="b" xmlns="http://www.w3.org/2000/svg" width="339.63" height="339.63" viewBox="0 0 339.63 339.63"><g id="c"><path d="m311.57,28.06h0c-37.41-37.41-98.08-37.41-135.49,0l-36.05,36.05c-5.09,5.09-1.59,13.89,5.62,13.95,11.16.09,22.43,1.77,32.74,5.62,5.7,2.13,12.12.67,16.42-3.63l16.11-16.11c17.28-17.28,45.26-18.59,63.45-2.28,19.69,17.66,20.31,48.08,1.85,66.53l-49.75,49.75c-17.79,17.79-46.7,17.85-64.58.19-.07-.07-.13-.14-.2-.21-9.77-9.77-25.6-9.77-35.37,0-9.77,9.77-9.77,25.6,0,35.37h0c37.41,37.41,98.08,37.41,135.49,0l49.75-49.75c37.41-37.41,37.42-98.08,0-135.49Z" fill="#ede9e4" stroke-width="0"/><path d="m28.06,311.57h0c37.41,37.41,98.08,37.41,135.49,0l36.05-36.05c5.09-5.09,1.59-13.89-5.62-13.95-11.16-.09-22.43-1.77-32.74-5.62-5.7-2.13-12.12-.67-16.42,3.63l-16.11,16.11c-17.28,17.28-45.26,18.59-63.45,2.28-19.69-17.66-20.31-48.08-1.85-66.53l49.75-49.75c17.79-17.79,46.7-17.85,64.58-.19.07.07.13.14.2.21,9.77,9.77,25.6,9.77,35.37,0,9.77-9.77,9.77-25.6,0-35.37h0c-37.41-37.41-98.08-37.41-135.49,0l-49.75,49.75c-37.41,37.41-37.42,98.08,0,135.49Z" fill="#ede9e4" stroke-width="0"/></g></svg>