<svg id="eye-light" xmlns="http://www.w3.org/2000/svg" xmlns:xlink="http://www.w3.org/1999/xlink" viewBox="0 0 390.97 232.13" shape-rendering="geometricPrecision" text-rendering="geometricPrecision">
<style><![CDATA[
#eye-light-u-c_ts {animation: eye-light-u-c_ts__ts 4500ms linear infinite normal forwards}@keyframes eye-light-u-c_ts__ts { 0% {transform: translate(195.487471px,116.060005px) scale(1,0)} 2.222222% {transform: translate(195.487471px,116.060005px) scale(1,1)} 97.777778% {transform: translate(195.487471px,116.060005px) scale(1,1)} 100% {transform: translate(195.487471px,116.060005px) scale(1,0)}}
]]></style>
<g id="eye-light-u-c_ts" transform="translate(195.487471,116.060005) scale(1,0)"><g id="eye-light-u-c" transform="translate(-195.479998,-116.060005)"><path id="eye-light-s-path1" d="M386.69,105.72L341.41,60.44c-80.59-80.59-211.25-80.59-291.84,0L4.28,105.72c-5.71,5.71-5.71,14.97,0,20.68l45.28,45.28c80.59,80.59,211.25,80.59,291.84,0l45.28-45.28c5.71-5.71,5.71-14.97,0-20.68ZM195.52,196.83c-44.63,0-80.8-36.18-80.8-80.8s36.18-80.8,80.8-80.8s80.8,36.18,80.8,80.8-36.18,80.8-80.8,80.8Z" fill="#ede9e4" stroke-width="0"/><circle id="eye-light-s-circle1" r="44.3" transform="translate(195.49 116.04)" fill="#ede9e4" stroke-width="0"/></g></g></svg>
