<?xml version="1.0" encoding="UTF-8"?><svg id="b" xmlns="http://www.w3.org/2000/svg" width="377.33" height="377.33" viewBox="0 0 377.33 377.33"><g id="c"><path d="m251.79,377.33c-4.33,0-8.4-2.25-10.68-6.01l-74.22-122.25c-2.45-4.03-2.42-9.1.08-13.1l42.38-67.97-67.95,42.39c-4,2.5-9.07,2.53-13.1.08L6.01,136.22c-4.18-2.54-6.5-7.29-5.93-12.15.58-4.86,3.93-8.94,8.6-10.44L361.01.6c4.46-1.43,9.34-.25,12.66,3.06s4.49,8.2,3.06,12.66l-113.04,352.33c-1.5,4.66-5.57,8.02-10.44,8.6-.49.06-.98.09-1.47.09Z" fill="#ede9e4" stroke-width="0"/></g></svg>