<?xml version="1.0" encoding="utf-8"?>
<!-- Generator: Adobe Illustrator 27.8.1, SVG Export Plug-In . SVG Version: 6.00 Build 0)  -->
<svg version="1.1" id="b" xmlns="http://www.w3.org/2000/svg" xmlns:xlink="http://www.w3.org/1999/xlink" x="0px" y="0px"
	 viewBox="0 0 155.5 144" style="enable-background:new 0 0 155.5 144;" xml:space="preserve">
<style type="text/css">
	.st0{fill:#47E0FC;}
</style>
<g id="c">
	<path class="st0" d="M133.3,0H10.6C4.8,0,0,4.7,0,10.4v123.2c0,5.7,4.8,10.4,10.6,10.4h122.7c5.9,0,10.7-4.6,10.7-10.4V10.4
		C144,4.7,139.2,0,133.3,0L133.3,0z M42.7,122.7H21.3V54h21.4C42.7,54,42.7,122.7,42.7,122.7z M32,44.6c-6.9,0-12.4-5.5-12.4-12.4
		S25.2,19.8,32,19.8s12.4,5.5,12.4,12.4S38.9,44.6,32,44.6z M122.7,122.7h-21.3V89.3c0-8-0.2-18.2-11.1-18.2s-12.8,8.7-12.8,17.6v34
		H56.1V54h20.5v9.4h0.3c2.8-5.4,9.8-11.1,20.2-11.1c21.6,0,25.6,14.2,25.6,32.7L122.7,122.7L122.7,122.7z"/>
	<polygon class="st0" points="147.5,119.1 148.7,119.1 148.7,122.7 149.3,122.7 149.3,119.1 150.5,119.1 150.5,118.5 147.5,118.5 	
		"/>
	<polygon class="st0" points="154.6,118.5 153.3,121.6 152.1,118.5 151.2,118.5 151.2,122.7 151.8,122.7 151.8,119.5 153.1,122.7 
		153.5,122.7 154.8,119.5 154.8,122.7 155.5,122.7 155.5,118.5 	"/>
</g>
</svg>
