<?xml version="1.0" encoding="UTF-8"?><svg id="b" xmlns="http://www.w3.org/2000/svg" width="232.18" height="232.18" viewBox="0 0 232.18 232.18"><g id="c"><path d="m232.18,232.18H0V0h232.18v232.18Zm-222.18-10h212.18V10H10v212.18Z" fill="#47e0fc" stroke-width="0"/><path d="m50.68,161.93v-93.32c0-.68.29-1,.88-1,1.56,0,3,0,5.12-.07l6.94-.15,7.89-.18c2.77-.05,5.52-.07,8.25-.07,7.4,0,13.63.92,18.69,2.77,4.57,1.55,8.73,4.09,12.19,7.45,2.93,2.91,5.2,6.43,6.64,10.3,1.35,3.77,2.03,7.75,2,11.76,0,7.79-1.8,14.22-5.4,19.28-3.63,5.07-8.72,8.91-14.6,11-6.13,2.29-12.95,3.06-20.44,3.06-2.14,0-3.65-.02-4.53-.07-.88-.05-2.19-.07-3.94-.07v29.14c.09.63-.35,1.22-.99,1.31-.11.02-.22.02-.32,0h-17.36c-.68.03-1.02-.36-1.02-1.14Zm19.73-76.82v30.44c1.27.1,2.43.15,3.5.15h4.82c3.55-.01,7.07-.58,10.44-1.67,2.89-.86,5.48-2.53,7.45-4.82,1.9-2.24,2.85-5.36,2.85-9.35.07-2.81-.67-5.59-2.12-8-1.53-2.34-3.75-4.15-6.35-5.18-3.39-1.32-7.02-1.94-10.66-1.83-2.34,0-4.41.02-6.21.07-1.8.05-3.04.12-3.72.22v-.03Z" fill="#47e0fc" stroke-width="0"/><path d="m175.79,110.02c-2.74-1.41-5.67-2.44-8.69-3.07-3.33-.76-6.73-1.16-10.15-1.17-1.85-.05-3.7.17-5.48.66-1.14.25-2.15.9-2.85,1.83-.48.74-.73,1.6-.73,2.48.03.86.34,1.68.88,2.34.85,1,1.9,1.82,3.07,2.41,2.08,1.12,4.23,2.13,6.43,3,4.9,1.64,9.59,3.87,13.95,6.64,2.97,1.87,5.43,4.46,7.16,7.52,1.45,2.9,2.18,6.11,2.12,9.35.08,4.26-1.14,8.45-3.5,12-2.54,3.62-6.06,6.43-10.15,8.1-4.43,1.95-9.91,2.92-16.43,2.92-4.14.04-8.28-.35-12.34-1.17-3.2-.59-6.31-1.57-9.27-2.92-.64-.34-1.03-1.02-1-1.75v-15.73c-.03-.31.11-.62.37-.8.26-.14.57-.12.8.07,3.48,2.07,7.26,3.58,11.2,4.48,3.49.88,7.06,1.34,10.66,1.39,3.41,0,5.91-.44,7.52-1.31,1.48-.68,2.43-2.17,2.41-3.8-.13-1.49-.93-2.84-2.19-3.65-1.46-1.17-4.43-2.58-8.91-4.24-4.58-1.6-8.93-3.81-12.92-6.57-2.85-1.99-5.2-4.61-6.86-7.67-1.44-2.88-2.16-6.06-2.12-9.27-.02-3.88,1.05-7.69,3.07-11,2.3-3.63,5.59-6.52,9.49-8.32,4.28-2.14,9.63-3.21,16.06-3.21,3.76-.03,7.52.24,11.24.8,2.7.34,5.33,1.06,7.83,2.12.4.11.73.41.88.8.1.36.15.73.15,1.1v14.75c.02.35-.15.68-.44.88-.4.2-.86.2-1.26,0Z" fill="#47e0fc" stroke-width="0"/></g></svg>