<?xml version="1.0" encoding="UTF-8"?><svg id="b" xmlns="http://www.w3.org/2000/svg" width="232.18" height="232.18" viewBox="0 0 232.18 232.18"><g id="c"><path d="m232.18,232.18H0V0h232.18v232.18Zm-222.18-10h212.18V10H10v212.18Z" fill="#47e0fc" stroke-width="0"/><path d="m166.49,123.92c-4.89.03-9.12,1.2-12.66,2.95-1.3-2.59-2.61-4.87-2.83-6.56-.26-1.98-.56-3.16-.24-5.51.31-2.36,1.67-5.69,1.65-5.94s-.31-1.45-3.12-1.47c-2.82-.02-5.23.54-5.51,1.29-.28.74-.83,2.42-1.16,4.16-.49,2.56-5.63,11.67-8.54,16.44-.95-1.86-1.76-3.5-1.93-4.8-.26-1.98-.56-3.16-.24-5.51.31-2.36,1.67-5.69,1.65-5.94-.02-.25-.31-1.45-3.12-1.47-2.82-.02-5.23.54-5.51,1.29-.28.74-.59,2.48-1.16,4.16-.58,1.68-7.4,16.88-9.19,20.82-.91,2.01-1.7,3.62-2.26,4.72,0,0,0,0,0,0,0,0-.03.07-.09.2-.48.94-.76,1.46-.76,1.46,0,0,0,0,0,.02-.38.69-.79,1.33-.99,1.33-.14,0-.42-1.83.06-4.35,1.02-5.27,3.45-13.5,3.43-13.78-.01-.15.45-1.58-1.59-2.33-1.99-.73-2.7.49-2.88.49-.18,0-.31.43-.31.43,0,0,2.22-9.25-4.23-9.25-4.03,0-9.61,4.41-12.36,8.4-1.73.95-5.45,2.97-9.39,5.14-1.51.83-3.06,1.68-4.52,2.49-.1-.11-.2-.22-.3-.33-7.81-8.33-22.25-14.23-21.64-25.43.22-4.07,1.64-14.8,27.74-27.8,21.38-10.66,38.5-7.72,41.46-1.22,4.23,9.28-9.15,26.54-31.36,29.03-8.46.95-12.92-2.33-14.02-3.55-1.17-1.29-1.34-1.34-1.78-1.1-.71.39-.26,1.53,0,2.2.66,1.73,3.38,4.79,8.02,6.31,4.08,1.34,14.02,2.07,26.03-2.57,13.46-5.2,23.96-19.68,20.88-31.79-3.14-12.31-23.55-16.36-42.86-9.49-11.5,4.08-23.94,10.49-32.89,18.86-10.64,9.95-12.34,18.61-11.64,22.23,2.48,12.86,20.21,21.23,27.31,27.44-.35.19-.68.37-.98.54-3.56,1.76-17.07,8.83-20.45,16.3-3.83,8.47.61,14.55,3.55,15.37,9.11,2.54,18.47-2.03,23.49-9.52,5.03-7.5,4.41-17.26,2.11-21.71-.03-.06-.06-.11-.09-.16.92-.54,1.86-1.1,2.78-1.64,1.81-1.06,3.59-2.06,5.13-2.89-.86,2.37-1.5,5.2-1.82,9.29-.39,4.81,1.58,11.03,4.16,13.47,1.14,1.08,2.5,1.1,3.37,1.1,3,0,4.37-2.5,5.88-5.45,1.85-3.62,3.49-7.84,3.49-7.84,0,0-2.06,11.39,3.55,11.39,2.04,0,4.1-2.65,5.02-4,0,.01,0,.02,0,.02,0,0,.05-.09.16-.26.21-.32.33-.53.33-.53,0,0,0-.02.01-.06.82-1.43,2.64-4.68,5.38-10.05,3.53-6.93,6.92-15.62,6.92-15.62,0,0,.32,2.12,1.35,5.63.61,2.07,1.9,4.35,2.92,6.54-.82,1.14-1.32,1.79-1.32,1.79,0,0,0,.01.01.03-.65.87-1.39,1.81-2.16,2.72-2.79,3.32-6.11,7.11-6.55,8.21-.52,1.29-.4,2.24.61,3,.74.56,2.06.64,3.43.55,2.51-.17,4.27-.79,5.14-1.17,1.36-.48,2.93-1.23,4.42-2.32,2.74-2.01,4.38-4.89,4.23-8.7-.09-2.1-.76-4.18-1.6-6.15.25-.36.5-.72.75-1.08,4.31-6.3,7.66-13.23,7.66-13.23,0,0,.32,2.12,1.35,5.63.52,1.78,1.55,3.72,2.48,5.62-4.05,3.29-6.57,7.12-7.44,9.63-1.61,4.64-.35,6.75,2.02,7.23,1.07.22,2.59-.28,3.73-.76,1.42-.47,3.13-1.25,4.72-2.43,2.74-2.01,5.36-4.83,5.21-8.64-.07-1.73-.54-3.46-1.18-5.11,3.44-1.43,7.89-2.23,13.55-1.57,12.16,1.42,14.54,9.01,14.09,12.19-.46,3.18-3.01,4.92-3.86,5.45-.85.53-1.11.71-1.04,1.1.1.57.5.55,1.22.43,1-.17,6.38-2.58,6.61-8.45.29-7.45-6.84-15.62-19.48-15.56Zm-93.71,31.59c-4.03,4.39-9.65,6.05-12.07,4.65-2.6-1.51-1.57-7.98,3.37-12.64,3.01-2.84,6.9-5.46,9.48-7.07.59-.35,1.45-.87,2.5-1.5.17-.1.27-.15.27-.15h0c.2-.13.41-.25.62-.38,1.8,6.64.05,12.48-4.17,17.09Zm29.34-19.94c-1.4,3.42-4.34,12.17-6.12,11.7-1.53-.4-2.47-7.05-.31-13.6,1.09-3.29,3.41-7.23,4.78-8.76,2.2-2.46,4.62-3.26,5.21-2.27.75,1.27-2.67,10.78-3.55,12.92Zm24.24,11.56c-.59.31-1.14.51-1.39.36-.19-.11.25-.52.25-.52,0,0,3.03-3.26,4.23-4.75.69-.86,1.5-1.89,2.38-3.04,0,.11.01.23.01.34,0,3.91-3.78,6.55-5.47,7.61Zm18.67-4.26c-.44-.32-.37-1.34,1.09-4.51.57-1.25,1.88-3.35,4.15-5.36.26.83.42,1.62.42,2.35-.03,4.92-3.54,6.75-5.66,7.51Z" fill="#47e0fc" stroke-width="0"/></g></svg>