<?xml version="1.0" encoding="UTF-8"?><svg id="b" xmlns="http://www.w3.org/2000/svg" width="155.46" height="144" viewBox="0 0 155.46 144"><g id="c"><path d="m133.34,0H10.63C4.76,0,0,4.65,0,10.38v123.23c0,5.73,4.76,10.39,10.63,10.39h122.72c5.87,0,10.66-4.65,10.66-10.39V10.38c0-5.73-4.79-10.38-10.66-10.38ZM42.71,122.71h-21.36V53.99h21.36v68.72Zm-10.67-78.12c-6.85,0-12.39-5.55-12.39-12.39s5.54-12.38,12.39-12.38,12.38,5.55,12.38,12.38-5.55,12.39-12.38,12.39Zm90.67,78.12h-21.34v-33.42c0-7.97-.15-18.22-11.1-18.22s-12.82,8.68-12.82,17.64v34h-21.34V53.99h20.49v9.39h.29c2.85-5.4,9.82-11.1,20.21-11.1,21.63,0,25.62,14.23,25.62,32.74v37.69Z" fill="#ede9e4" stroke-width="0"/><polygon points="147.52 119.09 148.68 119.09 148.68 122.71 149.31 122.71 149.31 119.09 150.46 119.09 150.46 118.46 147.52 118.46 147.52 119.09" fill="#ede9e4" stroke-width="0"/><polygon points="154.57 118.46 153.33 121.58 152.09 118.46 151.19 118.46 151.19 122.71 151.82 122.71 151.82 119.48 153.12 122.71 153.54 122.71 154.84 119.48 154.84 122.71 155.46 122.71 155.46 118.46 154.57 118.46" fill="#ede9e4" stroke-width="0"/></g></svg>