<?xml version="1.0" encoding="UTF-8"?><svg id="b" xmlns="http://www.w3.org/2000/svg" width="232.18" height="232.18" viewBox="0 0 232.18 232.18"><g id="c"><path d="m156.36,51.11c.9.2,1.81.35,2.69.61,2.27.68,4.21,1.92,5.88,3.6,2.45,2.45,4.92,4.88,7.35,7.36,5.67,5.79,5.68,14.13-.04,19.86-22.04,22.07-44.1,44.13-66.19,66.16-.73.72-1.82,1.31-2.82,1.49-8.43,1.53-16.86,3.11-25.34,4.34-3.44.5-7,.21-10.5.24-1.87.01-3.6.37-5.06,1.63-1.4,1.21-2.31,2.71-2.38,4.58-.07,2.11-.12,4.23.01,6.33.21,3.26,2.83,5.82,6.07,6.1.46.04.93.07,1.39.07,17.84,0,35.68,0,53.51.01,3.11,0,5.57-1.09,6.9-3.98.51-1.11.61-2.44.73-3.69.52-5.65,3.26-9.82,8.4-12.19,1.68-.77,3.64-1.26,5.48-1.28,11.96-.12,23.92-.06,35.89-.08,2.02,0-1.48,2.87-.72,4.56,0,.59,2.32-.54,2.32.05-.88,2.17-.18,2.89-2.48,2.87-11.28-.07-22.57-.04-33.85-.03-4.6,0-7.32,2.64-7.57,7.22-.05.92-.15,1.86-.36,2.76-1.55,6.74-7.21,11.24-14.21,11.26-10.27.03-52.11.09-52.11.09-10.66,0-17.89-6.48-17.03-17.15.2-2.48.07-4.96.97-7.36,2.03-5.36,7.18-9.12,12.91-9.28,2.36-.06,4.73-.01,7.24-.01.42-2.36.83-4.67,1.23-6.98.94-5.41,1.81-10.83,2.85-16.21.18-.95.85-1.94,1.55-2.65,8.21-8.28,16.47-16.52,24.72-24.77,13.03-13.03,26.1-26.03,39.07-39.11,3.13-3.15,6.32-5.97,10.97-6.43.85,0,1.69,0,2.54,0Zm-53.34,89.75c17.62-17.61,35.24-35.24,52.72-52.72-1.76-1.77-3.59-3.61-5.32-5.35-17.55,17.54-35.17,35.17-52.74,52.74,1.75,1.74,3.56,3.56,5.34,5.33Zm-10.92-10.92c17.61-17.61,35.23-35.23,52.74-52.74-1.77-1.78-3.61-3.62-5.37-5.39-17.55,17.55-35.18,35.18-52.74,52.74,1.75,1.76,3.57,3.57,5.37,5.38Zm69.33-47.35c2-1.96,4.07-3.84,5.96-5.87,2.16-2.33,2.27-5.75.13-8.07-2.74-2.98-5.63-5.83-8.59-8.59-1.94-1.81-5.12-2.09-7.15-.46-2.48,1.98-4.66,4.33-6.89,6.45,5.62,5.62,11.08,11.08,16.55,16.55Zm-77.86,50.06c-.78,4.54-1.55,9.07-2.36,13.76,4.78-.83,9.3-1.61,13.72-2.38-3.82-3.83-7.56-7.58-11.36-11.38Z" fill="#47e0fc" stroke-width="0"/><path d="m232.18,232.18H0V0h232.18v232.18Zm-222.18-10h212.18V10H10v212.18Z" fill="#47e0fc" stroke-width="0"/></g></svg>