<?xml version="1.0" encoding="UTF-8"?><svg id="b" xmlns="http://www.w3.org/2000/svg" width="232.18" height="232.18" viewBox="0 0 232.18 232.18"><g id="c"><path d="m232.18,232.18H0V0h232.18v232.18Zm-222.18-10h212.18V10H10v212.18Z" fill="#47e0fc" stroke-width="0"/><polygon points="116.15 53.45 116.08 53.45 60.68 53.45 61.21 59.39 66.65 120.35 116.08 120.35 116.15 120.35 143.32 120.35 140.75 149.04 116.08 155.7 116.08 155.7 116.06 155.7 91.42 149.05 89.85 131.41 77.87 131.41 67.64 131.41 70.74 166.14 116.05 178.72 116.15 178.69 116.15 178.69 161.43 166.14 161.76 162.41 166.96 104.17 167.5 98.23 161.54 98.23 116.15 98.23 116.08 98.23 86.88 98.23 84.86 75.57 116.08 75.57 116.15 75.57 169.44 75.57 169.51 75.57 169.95 70.6 170.96 59.39 171.49 53.45 116.15 53.45" fill="#47e0fc" stroke-width="0"/></g></svg>