<?xml version="1.0" encoding="UTF-8"?><svg id="b" xmlns="http://www.w3.org/2000/svg" width="232.18" height="232.18" viewBox="0 0 232.18 232.18"><g id="c"><path d="m232.18,232.18H0V0h232.18v232.18Zm-222.18-10h212.18V10H10v212.18Z" fill="#47e0fc" stroke-width="0"/><path d="m119.19,123.47c.31-4.75,2.57-9.16,6.25-12.18,7.81-6.41,19.06-6.41,26.88,0,3.68,3.02,5.94,7.43,6.25,12.18.23,4.92-1.69,9.69-5.26,13.08-8.12,7.59-20.74,7.59-28.86,0-3.58-3.39-5.5-8.16-5.26-13.08Z" fill="#47e0fc" stroke-width="0"/><path d="m87.84,133.29c.17,2.88.69,5.73,1.55,8.49,1.97,6.22,5.29,11.94,9.7,16.75,4.73,5.2,10.5,9.34,16.93,12.16,14.18,6.19,30.3,6.16,44.46-.07,6.43-2.84,12.2-7,16.92-12.21,4.4-4.83,7.7-10.56,9.67-16.78,1.9-6.03,2.42-12.41,1.51-18.67-.86-5.98-2.97-11.72-6.19-16.84-2.97-4.8-6.79-9.03-11.26-12.48h0l-45.55-34.95-.12-.09c-2.99-2.3-8.01-2.29-11.3,0-3.29,2.29-3.7,6.17-.75,8.6h0l19,15.45-57.91.06h-.07c-4.78,0-9.39,3.15-10.3,7.11-.92,3.97,2.31,7.4,7.29,7.41h0l29.32-.02-52.37,40.2-.2.15c-4.94,3.79-6.54,10.08-3.43,14.05s9.88,4.05,14.87,0l28.58-23.39c-.22,1.68-.34,3.38-.37,5.08Zm73.45,10.58c-12.81,12.54-33.28,12.57-46.13.07-2.78-2.79-4.93-6.15-6.3-9.85-1.28-3.52-1.78-7.28-1.45-11.02.31-3.64,1.39-7.17,3.15-10.37,1.78-3.2,4.16-6.02,7.01-8.32,12.08-9.58,29.17-9.6,41.28-.06,2.85,2.3,5.22,5.12,7,8.32,1.77,3.19,2.85,6.72,3.17,10.36.33,3.73-.17,7.49-1.45,11.01-1.37,3.7-3.51,7.05-6.28,9.85Z" fill="#47e0fc" stroke-width="0"/></g></svg>