<?xml version="1.0" encoding="UTF-8"?><svg id="b" xmlns="http://www.w3.org/2000/svg" width="232.18" height="232.18" viewBox="0 0 232.18 232.18"><g id="c"><path d="m232.18,232.18H0V0h232.18v232.18Zm-222.18-10h212.18V10H10v212.18Z" fill="#47e0fc" stroke-width="0"/><g id="d"><g id="e"><g id="f"><path d="m94.7,142.55h-37.2l-7.57,23.55c-.21.88-1.02,1.49-1.93,1.45h-18.83c-1.07,0-1.45-.59-1.13-1.77l32.24-92.35c.32-1,.64-1.91,1-3.15.42-2.15.63-4.33.64-6.52-.08-.55.3-1.05.85-1.13.09-.01.19-.01.28,0h25.6c.75,0,1.18.27,1.29.81l36.55,102.5c.32,1.07-.01,1.61-1,1.61h-20.97c-.74.08-1.43-.4-1.61-1.13l-8.21-23.87Zm-31.42-19.86h25.44c-.67-2.15-1.42-4.56-2.25-7.25-.83-2.69-1.75-5.56-2.74-8.61l-2.9-9.18c-.97-3.06-1.85-6.01-2.66-8.86s-1.53-5.45-2.17-7.81h-.16c-.91,4.35-2.03,8.65-3.38,12.88-1.51,4.83-3.04,9.77-4.59,14.81-1.55,5.04-3.08,9.71-4.59,14.02Z" fill="#47e0fc" stroke-width="0"/><path d="m185.66,133.38h-31.72c.39,3.14,1.43,6.16,3.06,8.87,1.81,2.67,4.35,4.76,7.33,6,4.04,1.75,8.4,2.6,12.8,2.51,3.49-.07,6.96-.45,10.38-1.14,3.06-.41,6.06-1.2,8.93-2.33.54-.43.81-.16.81.81v15.29c.03.42-.06.83-.24,1.21-.18.29-.43.54-.72.72-3.19,1.42-6.55,2.43-10,3-4.66.88-9.4,1.3-14.15,1.23-7.62,0-14.01-1.18-19.16-3.54-4.87-2.14-9.17-5.4-12.56-9.5-3.16-3.86-5.52-8.33-6.92-13.12-1.39-4.73-2.09-9.64-2.09-14.57-.01-5.39.83-10.74,2.5-15.86,1.61-5,4.15-9.64,7.49-13.69,3.3-4,7.42-7.24,12.08-9.5,4.72-2.31,10.3-3.13,16.74-3.13,5.34-.14,10.65.91,15.54,3.06,4.12,1.76,7.74,4.51,10.55,8,2.65,3.4,4.68,7.24,6,11.35,1.27,3.96,1.92,8.09,1.93,12.24,0,2.36-.08,4.51-.24,6.44-.16,1.93-.29,3.33-.4,4.19-.09.74-.71,1.29-1.45,1.29-.67,0-1.77.08-3.3.24-1.53.16-3.47.27-5.8.32-2.37.01-4.77-.39-7.39-.39Zm-31.72-14.67h21.09c2.57,0,4.48-.03,5.72-.08.83-.08,1.63-.34,2.34-.77v-1c-.03-1.26-.25-2.5-.64-3.7-1.78-5.63-7.1-9.39-13-9.18-5.55-.35-10.79,2.62-13.33,7.57-1.11,2.26-1.85,4.68-2.18,7.17h0Z" fill="#47e0fc" stroke-width="0"/></g></g></g></g></svg>