<?xml version="1.0" encoding="UTF-8"?><svg id="b" xmlns="http://www.w3.org/2000/svg" width="232.18" height="232.18" viewBox="0 0 232.18 232.18"><g id="c"><path d="m232.18,232.18H0V0h232.18v232.18Zm-222.18-10h212.18V10H10v212.18Z" fill="#47e0fc" stroke-width="0"/><polygon points="167.89 76.58 170.02 55.53 116.56 55.53 62.15 55.53 64.76 76.58 116.56 76.58 119.47 76.58 116.56 77.8 66.65 98.58 68.3 119.16 116.56 119.32 116.56 119.32 142.42 119.4 140.77 146.84 116.4 153.7 92.98 147.79 91.56 130.75 69.8 130.75 72.64 163.64 116.64 176.65 160.4 163.87 166.08 98.58 116.56 98.58 116.44 98.58 116.56 98.53 167.89 76.58" fill="#47e0fc" stroke-width="0"/></g></svg>