<?xml version="1.0" encoding="UTF-8"?><svg id="b" xmlns="http://www.w3.org/2000/svg" width="232.18" height="232.18" viewBox="0 0 232.18 232.18"><g id="c"><path d="m121.86,71.36l-28.16,46.47,30.12,49.35c.19.35.25.75.15,1.14-.1.35-.45.13-1.06.23h-21.5c-1.5,0-2.58-.06-3.18-1.07-2-3.93-4.02-7.85-6.05-11.74-2.03-3.89-4.18-7.85-6.43-11.88-2.27-4.03-4.52-8.12-6.74-12.26h-.15c-2,4.03-4.09,8.07-6.28,12.11s-4.33,8.04-6.43,12c-2.12,4-4.29,7.96-6.5,11.89-.4.91-1.11,1-2.12,1h-20.74c-.4,0-.63.16-.68-.24-.06-.37.02-.75.23-1.06l29.21-48-28.48-48.09c-.31-.41-.36-.73-.15-1,.23-.26.57-.4.91-.37h21.34c.47-.03.94.05,1.37.23.36.21.67.49.9.83,1.82,4.04,3.84,8.08,6.06,12.11,2.22,4.03,4.46,8.03,6.73,12,2.27,3.94,4.37,7.94,6.28,12h.15c2-4.14,4.04-8.18,6.13-12.11,2.09-3.93,4.2-7.9,6.35-11.89,2.17-4,4.26-7.96,6.28-11.88.12-.38.33-.72.61-1,.37-.19.79-.27,1.21-.23h19.83c.45-.09.89.19,1,.63h0c.08.32-.03.67-.29.88l.08-.05Z" fill="#47e0fc" stroke-width="0"/><path d="m165.31,170.5c-6.96.1-13.87-1.34-20.2-4.24-5.9-2.72-10.84-7.17-14.16-12.76-3.64-6.53-5.42-13.94-5.15-21.41-.06-6.95,1.72-13.79,5.15-19.83,3.54-6.16,8.73-11.19,15-14.53,7.32-3.82,15.5-5.7,23.76-5.46.5,0,1.16,0,2,.07s1.76.12,2.87.23v-29.84c0-.7.3-1.06.91-1.06h19.07c.44-.07.84.24.91.67,0,0,0,0,0,0h0c.01.08.01.15,0,.23v89.48c0,1.72.08,3.59.23,5.6s.28,3.83.38,5.45c.03.64-.33,1.23-.91,1.5-4.92,2.05-10.05,3.57-15.29,4.54-4.81.89-9.68,1.34-14.57,1.35Zm9.23-18.77v-41.32c-.82-.22-1.66-.37-2.5-.45-1.03-.1-2.07-.15-3.11-.15-3.68-.03-7.31.8-10.6,2.43-7.2,3.46-11.55,10.96-11,18.92-.07,3.3.47,6.59,1.59,9.69.89,2.49,2.31,4.76,4.15,6.65,1.8,1.74,3.97,3.03,6.35,3.78,2.52.82,5.15,1.23,7.8,1.22,1.41,0,2.72-.05,3.94-.16,1.13-.09,2.24-.29,3.33-.61h.05Z" fill="#47e0fc" stroke-width="0"/><path d="m232.18,232.18H0V0h232.18v232.18Zm-222.18-10h212.18V10H10v212.18Z" fill="#47e0fc" stroke-width="0"/></g></svg>